<?xml version="1.0" encoding="UTF-8" standalone="no"?>
<!DOCTYPE svg PUBLIC "-//W3C//DTD SVG 1.1//EN" "http://www.w3.org/Graphics/SVG/1.1/DTD/svg11.dtd">
<svg width="100%" height="100%" viewBox="0 0 196 196" version="1.1" xmlns="http://www.w3.org/2000/svg" xmlns:xlink="http://www.w3.org/1999/xlink" xml:space="preserve" xmlns:serif="http://www.serif.com/" style="fill-rule:evenodd;clip-rule:evenodd;stroke-linejoin:round;stroke-miterlimit:2;">
    <g transform="matrix(1,0,0,1,1638.42,-13048.6)">
        <g transform="matrix(2.10071,0,0,2.10071,-6566.68,13559.1)">
            <circle cx="2392.5" cy="-196.5" r="46.5" style="fill:rgb(132,0,66);"/>
        </g>
        <g transform="matrix(0.587345,0,0,0.587345,-983.716,5496.07)">
            <path d="M-885.709,12930C-920.319,12895.3 -976.432,12895.3 -1011.04,12930C-1011.04,12930 -1011.04,12930 -1011.04,12930C-1045.65,12964.6 -1045.65,13020.7 -1011.04,13055.3C-979.709,13086.6 -948.375,13146.3 -948.375,13146.3C-948.375,13146.3 -917.042,13086.6 -885.708,13055.3C-851.098,13020.7 -851.098,12964.6 -885.708,12930C-885.708,12930 -885.708,12930 -885.709,12930ZM-948.375,12955.5C-929.155,12955.5 -913.55,12971.1 -913.55,12990.3C-913.55,13009.6 -929.155,13025.2 -948.375,13025.2C-967.596,13025.2 -983.2,13009.6 -983.2,12990.3C-983.2,12971.1 -967.596,12955.5 -948.375,12955.5Z" style="fill:white;"/>
        </g>
    </g>
</svg>
