<?xml version="1.0" encoding="UTF-8" standalone="no"?>
<!DOCTYPE svg PUBLIC "-//W3C//DTD SVG 1.1//EN" "http://www.w3.org/Graphics/SVG/1.1/DTD/svg11.dtd">
<svg width="100%" height="100%" viewBox="0 0 23623 3662" version="1.1" xmlns="http://www.w3.org/2000/svg" xmlns:xlink="http://www.w3.org/1999/xlink" xml:space="preserve" xmlns:serif="http://www.serif.com/" style="fill-rule:evenodd;clip-rule:evenodd;stroke-linejoin:round;stroke-miterlimit:2;">
    <g transform="matrix(1,0,0,1,-3670.86,-11729.1)">
        <g transform="matrix(1.33315,0,0,0.870634,-72027.9,6748.1)">
            <rect x="56782" y="5721.17" width="17719" height="4205.46" style="fill:white;"/>
        </g>
        <g transform="matrix(2.11745,0,0,2.11745,-72160.1,-5721.55)">
            <g transform="matrix(0.836428,0,0,0.667279,41251.6,7696.66)">
                <path d="M700.103,1666L680.978,1599.31L590.322,1599.31L570.004,1666L485.673,1666L590.144,1327.59L699.971,1327.59L806.107,1666L700.103,1666ZM607.982,1525.43L662.733,1525.43L635.354,1427.26L607.982,1525.43Z" style="fill:rgb(4,6,0);fill-rule:nonzero;"/>
                <g transform="matrix(1,0,0,1,60.9854,0)">
                    <path d="M802.326,1568.07L898.766,1550.72C906.865,1577.99 927.69,1591.62 961.242,1591.62C987.356,1591.62 1000.41,1584.68 1000.41,1570.8C1000.41,1563.53 997.396,1557.87 991.364,1553.82C985.331,1549.77 974.545,1546.18 959.007,1543.04C899.664,1531.67 861.566,1516.81 844.713,1498.46C827.859,1480.11 819.433,1458.53 819.433,1433.73C819.433,1401.83 831.539,1375.29 855.753,1354.13C879.966,1332.97 914.798,1322.39 960.25,1322.39C1029.17,1322.39 1074.7,1350.07 1096.85,1405.44L1010.83,1431.47C1001.9,1408.83 983.802,1397.51 956.531,1397.51C933.888,1397.51 922.567,1404.53 922.567,1418.58C922.567,1424.86 925.128,1429.73 930.252,1433.2C935.376,1436.68 945.294,1439.98 960.006,1443.11C1000.51,1451.67 1029.27,1459.25 1046.3,1465.83C1063.33,1472.42 1077.54,1483.69 1088.93,1499.65C1100.33,1515.62 1106.03,1534.43 1106.03,1556.1C1106.03,1590.33 1092.14,1618.08 1064.38,1639.33C1036.61,1660.58 1000.17,1671.21 955.044,1671.21C872.57,1671.21 821.664,1636.83 802.326,1568.07Z" style="fill:rgb(4,6,0);fill-rule:nonzero;"/>
                </g>
                <g transform="matrix(1,0,0,1,78.5232,0)">
                    <rect x="1145.69" y="1327.59" width="103.878" height="338.408" style="fill:rgb(4,6,0);fill-rule:nonzero;"/>
                </g>
                <g transform="matrix(1,0,0,1,111.68,0)">
                    <path d="M1273.62,1568.07L1370.06,1550.72C1378.16,1577.99 1398.98,1591.62 1432.53,1591.62C1458.65,1591.62 1471.7,1584.68 1471.7,1570.8C1471.7,1563.53 1468.69,1557.87 1462.65,1553.82C1456.62,1549.77 1445.84,1546.18 1430.3,1543.04C1370.96,1531.67 1332.86,1516.81 1316,1498.46C1299.15,1480.11 1290.72,1458.53 1290.72,1433.73C1290.72,1401.83 1302.83,1375.29 1327.04,1354.13C1351.26,1332.97 1386.09,1322.39 1431.54,1322.39C1500.46,1322.39 1546,1350.07 1568.14,1405.44L1482.12,1431.47C1473.19,1408.83 1455.09,1397.51 1427.82,1397.51C1405.18,1397.51 1393.86,1404.53 1393.86,1418.58C1393.86,1424.86 1396.42,1429.73 1401.54,1433.2C1406.67,1436.68 1416.59,1439.98 1431.3,1443.11C1471.8,1451.67 1500.56,1459.25 1517.59,1465.83C1534.62,1472.42 1548.83,1483.69 1560.23,1499.65C1571.62,1515.62 1577.32,1534.43 1577.32,1556.1C1577.32,1590.33 1563.43,1618.08 1535.67,1639.33C1507.9,1660.58 1471.46,1671.21 1426.34,1671.21C1343.86,1671.21 1292.96,1636.83 1273.62,1568.07Z" style="fill:rgb(4,6,0);fill-rule:nonzero;"/>
                </g>
                <g transform="matrix(1,0,0,1,154.753,0)">
                    <path d="M1760.03,1408.66L1760.03,1666L1661.61,1666L1661.61,1408.66L1591.45,1408.66L1591.45,1327.59L1830.19,1327.59L1830.19,1408.66L1760.03,1408.66Z" style="fill:rgb(4,6,0);fill-rule:nonzero;"/>
                </g>
                <g transform="matrix(1,0,0,1,182.456,0)">
                    <path d="M2114.31,1585.18L2114.31,1666L1859.7,1666L1859.7,1327.59L2114.31,1327.59L2114.31,1405.69L1961.59,1405.69L1961.59,1454.77L2085.05,1454.77L2085.05,1529.89L1961.59,1529.89L1961.59,1585.18L2114.31,1585.18Z" style="fill:rgb(4,6,0);fill-rule:nonzero;"/>
                </g>
                <g transform="matrix(1,0,0,1,198.506,0)">
                    <path d="M2444.78,1666L2360.24,1666L2267.56,1516.48C2255.66,1497.3 2243.67,1474.01 2231.57,1446.59C2237.03,1468.41 2239.75,1486.92 2239.75,1502.13L2239.75,1666L2155.46,1666L2155.46,1327.59L2253.64,1327.59L2332.48,1451.54C2348.19,1476.17 2360.08,1497.82 2368.18,1516.51C2362.89,1487.58 2360.24,1458 2360.24,1427.75L2360.24,1327.59L2444.78,1327.59L2444.78,1666Z" style="fill:rgb(4,6,0);fill-rule:nonzero;"/>
                </g>
                <g transform="matrix(1,0,0,1,226.208,0)">
                    <path d="M2642.87,1408.66L2642.87,1666L2544.45,1666L2544.45,1408.66L2474.28,1408.66L2474.28,1327.59L2713.03,1327.59L2713.03,1408.66L2642.87,1408.66Z" style="fill:rgb(4,6,0);fill-rule:nonzero;"/>
                </g>
                <g transform="matrix(1,0,0,1,300.085,0)">
                    <path d="M2910.79,1666L2891.66,1599.31L2801.01,1599.31L2780.69,1666L2696.36,1666L2800.83,1327.59L2910.65,1327.59L3016.79,1666L2910.79,1666ZM2818.66,1525.43L2873.42,1525.43L2846.04,1427.26L2818.66,1525.43Z" style="fill:rgb(4,6,0);fill-rule:nonzero;"/>
                </g>
                <g transform="matrix(1,0,0,1,563.59,0)">
                    <path d="M3476.12,1666L3360.96,1666L3311.53,1536.59L3278.78,1536.59L3278.78,1666L3174.9,1666L3174.9,1327.59L3351.66,1327.59C3390.67,1327.59 3420.96,1336.72 3442.53,1354.99C3464.1,1373.25 3474.88,1397.34 3474.88,1427.26C3474.88,1446.76 3470.91,1463.99 3462.98,1478.95C3455.05,1493.9 3439.01,1507.09 3414.88,1518.49L3476.12,1666ZM3278.78,1464.19L3323.15,1464.19C3336.21,1464.19 3346.71,1461.47 3354.64,1456.01C3362.57,1450.56 3366.54,1442.54 3366.54,1431.97C3366.54,1410.31 3353.24,1399.49 3326.62,1399.49L3278.78,1399.49L3278.78,1464.19Z" style="fill:rgb(4,6,0);fill-rule:nonzero;"/>
                </g>
                <g transform="matrix(1,0,0,1,611.985,0)">
                    <path d="M3799.65,1327.59L3799.65,1551.71C3799.65,1594.19 3787.05,1624.72 3761.85,1643.32C3736.64,1661.91 3703.79,1671.21 3663.3,1671.21C3620.66,1671.21 3586.4,1662.28 3560.54,1644.43C3534.67,1626.58 3521.74,1597.49 3521.74,1557.16L3521.74,1327.59L3627.35,1327.59L3627.35,1545.02C3627.35,1561.21 3630.77,1573.03 3637.61,1580.47C3644.45,1587.91 3655.37,1591.62 3670.37,1591.62C3682.9,1591.62 3693.16,1588.94 3701.15,1583.57C3709.14,1578.2 3713.92,1572.12 3715.49,1565.35C3717.06,1558.57 3717.84,1545.35 3717.84,1525.68L3717.84,1327.59L3799.65,1327.59Z" style="fill:rgb(4,6,0);fill-rule:nonzero;"/>
                </g>
                <g transform="matrix(1,0,0,1,679.965,0)">
                    <path d="M3994.27,1408.66L3994.27,1666L3895.84,1666L3895.84,1408.66L3825.68,1408.66L3825.68,1327.59L4064.43,1327.59L4064.43,1408.66L3994.27,1408.66Z" style="fill:rgb(4,6,0);fill-rule:nonzero;"/>
                </g>
                <g transform="matrix(1,0,0,1,744.474,0)">
                    <rect x="4093.93" y="1327.59" width="103.878" height="338.408" style="fill:rgb(4,6,0);fill-rule:nonzero;"/>
                </g>
                <g transform="matrix(1,0,0,1,779.48,0)">
                    <path d="M4511.42,1585.18L4511.42,1666L4256.81,1666L4256.81,1327.59L4511.42,1327.59L4511.42,1405.69L4358.71,1405.69L4358.71,1454.77L4482.17,1454.77L4482.17,1529.89L4358.71,1529.89L4358.71,1585.18L4511.42,1585.18Z" style="fill:rgb(4,6,0);fill-rule:nonzero;"/>
                </g>
                <g transform="matrix(1,0,0,1,832.337,0)">
                    <path d="M4853.8,1666L4738.64,1666L4689.21,1536.59L4656.46,1536.59L4656.46,1666L4552.58,1666L4552.58,1327.59L4729.34,1327.59C4768.35,1327.59 4798.64,1336.72 4820.21,1354.99C4841.78,1373.25 4852.56,1397.34 4852.56,1427.26C4852.56,1446.76 4848.59,1463.99 4840.66,1478.95C4832.73,1493.9 4816.69,1507.09 4792.56,1518.49L4853.8,1666ZM4656.46,1464.19L4700.83,1464.19C4713.89,1464.19 4724.39,1461.47 4732.32,1456.01C4740.25,1450.56 4744.22,1442.54 4744.22,1431.97C4744.22,1410.31 4730.91,1399.49 4704.3,1399.49L4656.46,1399.49L4656.46,1464.19Z" style="fill:rgb(4,6,0);fill-rule:nonzero;"/>
                </g>
                <g transform="matrix(1,0,0,1,905.09,0)">
                    <path d="M5089.49,1666L5070.36,1599.31L4979.71,1599.31L4959.39,1666L4875.06,1666L4979.53,1327.59L5089.36,1327.59L5195.49,1666L5089.49,1666ZM4997.37,1525.43L5052.12,1525.43L5024.74,1427.26L4997.37,1525.43Z" style="fill:rgb(4,6,0);fill-rule:nonzero;"/>
                </g>
            </g>
            <g transform="matrix(0.836428,0,0,0.667279,37517.7,7696.66)">
                <path d="M652.584,1408.66L652.584,1666L554.161,1666L554.161,1408.66L484,1408.66L484,1327.59L722.745,1327.59L722.745,1408.66L652.584,1408.66Z" style="fill:rgb(4,6,0);fill-rule:nonzero;"/>
                <path d="M1053.47,1666L938.309,1666L888.881,1536.59L856.125,1536.59L856.125,1666L752.247,1666L752.247,1327.59L929.012,1327.59C968.018,1327.59 998.305,1336.72 1019.87,1354.99C1041.44,1373.25 1052.23,1397.34 1052.23,1427.26C1052.23,1446.76 1048.26,1463.99 1040.33,1478.95C1032.39,1493.9 1016.36,1507.09 992.231,1518.49L1053.47,1666ZM856.125,1464.19L900.502,1464.19C913.559,1464.19 924.054,1461.47 931.987,1456.01C939.921,1450.56 943.887,1442.54 943.887,1431.97C943.887,1410.31 930.583,1399.49 903.973,1399.49L856.125,1399.49L856.125,1464.19Z" style="fill:rgb(4,6,0);fill-rule:nonzero;"/>
                <path d="M1289.16,1666L1270.03,1599.31L1179.37,1599.31L1159.06,1666L1074.73,1666L1179.2,1327.59L1289.02,1327.59L1395.16,1666L1289.16,1666ZM1197.04,1525.43L1251.79,1525.43L1224.41,1427.26L1197.04,1525.43Z" style="fill:rgb(4,6,0);fill-rule:nonzero;"/>
                <path d="M1602.36,1536.84L1697.31,1542.54C1692.85,1584.02 1677.52,1615.84 1651.32,1637.99C1625.12,1660.13 1592.94,1671.21 1554.76,1671.21C1508.81,1671.21 1471.7,1656 1443.44,1625.59C1415.18,1595.18 1401.05,1553.2 1401.05,1499.65C1401.05,1446.59 1414.43,1403.79 1441.21,1371.23C1467.99,1338.67 1505.34,1322.39 1553.27,1322.39C1598.06,1322.39 1632.48,1334.78 1656.53,1359.57C1680.58,1384.37 1694.17,1417.26 1697.31,1458.25L1600.37,1463.45C1600.37,1440.81 1596.04,1424.44 1587.36,1414.36C1578.68,1404.28 1568.48,1399.24 1556.74,1399.24C1524.02,1399.24 1507.65,1432.13 1507.65,1497.91C1507.65,1534.77 1511.91,1559.81 1520.42,1573.03C1528.93,1586.25 1540.87,1592.86 1556.24,1592.86C1583.68,1592.86 1599.05,1574.19 1602.36,1536.84Z" style="fill:rgb(4,6,0);fill-rule:nonzero;"/>
                <path d="M1874.32,1408.66L1874.32,1666L1775.9,1666L1775.9,1408.66L1705.74,1408.66L1705.74,1327.59L1944.48,1327.59L1944.48,1408.66L1874.32,1408.66Z" style="fill:rgb(4,6,0);fill-rule:nonzero;"/>
                <path d="M2142.24,1666L2123.12,1599.31L2032.46,1599.31L2012.14,1666L1927.81,1666L2032.28,1327.59L2142.11,1327.59L2248.24,1666L2142.24,1666ZM2050.12,1525.43L2104.87,1525.43L2077.49,1427.26L2050.12,1525.43Z" style="fill:rgb(4,6,0);fill-rule:nonzero;"/>
                <path d="M2580.64,1666L2465.48,1666L2416.05,1536.59L2383.3,1536.59L2383.3,1666L2279.42,1666L2279.42,1327.59L2456.19,1327.59C2495.19,1327.59 2525.48,1336.72 2547.05,1354.99C2568.62,1373.25 2579.4,1397.34 2579.4,1427.26C2579.4,1446.76 2575.43,1463.99 2567.5,1478.95C2559.57,1493.9 2543.54,1507.09 2519.41,1518.49L2580.64,1666ZM2383.3,1464.19L2427.68,1464.19C2440.73,1464.19 2451.23,1461.47 2459.16,1456.01C2467.09,1450.56 2471.06,1442.54 2471.06,1431.97C2471.06,1410.31 2457.76,1399.49 2431.15,1399.49L2383.3,1399.49L2383.3,1464.19Z" style="fill:rgb(4,6,0);fill-rule:nonzero;"/>
                <rect x="2629.73" y="1327.59" width="103.878" height="338.408" style="fill:rgb(4,6,0);fill-rule:nonzero;"/>
                <path d="M3106.14,1666L3087.02,1599.31L2996.36,1599.31L2976.05,1666L2891.72,1666L2996.19,1327.59L3106.01,1327.59L3212.15,1666L3106.14,1666ZM3014.02,1525.43L3068.78,1525.43L3041.4,1427.26L3014.02,1525.43Z" style="fill:rgb(4,6,0);fill-rule:nonzero;"/>
                <path d="M3510.08,1327.59L3510.08,1551.71C3510.08,1594.19 3497.48,1624.72 3472.28,1643.32C3447.07,1661.91 3414.22,1671.21 3373.73,1671.21C3331.09,1671.21 3296.83,1662.28 3270.97,1644.43C3245.1,1626.58 3232.17,1597.49 3232.17,1557.16L3232.17,1327.59L3337.78,1327.59L3337.78,1545.02C3337.78,1561.21 3341.2,1573.03 3348.04,1580.47C3354.88,1587.91 3365.8,1591.62 3380.8,1591.62C3393.33,1591.62 3403.59,1588.94 3411.58,1583.57C3419.58,1578.2 3424.36,1572.12 3425.92,1565.35C3427.49,1558.57 3428.27,1545.35 3428.27,1525.68L3428.27,1327.59L3510.08,1327.59Z" style="fill:rgb(4,6,0);fill-rule:nonzero;"/>
                <path d="M3704.7,1408.66L3704.7,1666L3606.28,1666L3606.28,1408.66L3536.12,1408.66L3536.12,1327.59L3774.86,1327.59L3774.86,1408.66L3704.7,1408.66Z" style="fill:rgb(4,6,0);fill-rule:nonzero;"/>
                <path d="M3950.63,1671.21C3903.03,1671.21 3864.24,1655.42 3834.24,1623.85C3804.24,1592.29 3789.24,1550.06 3789.24,1497.17C3789.24,1446.59 3803.58,1404.82 3832.25,1371.85C3860.93,1338.87 3900.72,1322.39 3951.63,1322.39C3998.73,1322.39 4037.12,1337.92 4066.78,1369C4096.45,1400.07 4111.28,1441.55 4111.28,1493.45C4111.28,1547.16 4096.33,1590.22 4066.41,1622.61C4036.5,1655.01 3997.9,1671.21 3950.63,1671.21ZM3950.14,1594.35C3967.66,1594.35 3980.26,1586.71 3987.95,1571.42C3995.63,1556.13 3999.47,1528.16 3999.47,1487.5C3999.47,1428.66 3983.69,1399.24 3952.12,1399.24C3918.07,1399.24 3901.05,1432.79 3901.05,1499.89C3901.05,1562.87 3917.41,1594.35 3950.14,1594.35Z" style="fill:rgb(4,6,0);fill-rule:nonzero;"/>
            </g>
        </g>
        <g transform="matrix(2.29738,0,0,2.29738,13590.5,-10480.9)">
            <g transform="matrix(0.384889,0,0,0.384889,-6719.27,9566.13)">
                <g transform="matrix(13.1523,0,0,12.9804,3074.37,-10635.9)">
                    <path d="M891,1023.54C861.496,1023.54 837.542,1047.5 837.542,1077C837.542,1106.5 861.496,1130.46 891,1130.46C920.504,1130.46 944.458,1106.5 944.458,1077C944.458,1047.5 920.504,1023.54 891,1023.54ZM891,1028.46C917.791,1028.46 939.542,1050.21 939.542,1077C939.542,1103.79 917.791,1125.54 891,1125.54C864.209,1125.54 842.458,1103.79 842.458,1077C842.458,1050.21 864.209,1028.46 891,1028.46Z"/>
                </g>
                <g transform="matrix(9.97274,0,0,9.84241,4361.84,-26869.5)">
                    <path d="M1016.24,3024C1009.78,3024 1003.32,3031.08 1002.28,3032.54L1001.86,3032.96L1001.65,3033.58C992.694,3054.21 1022.9,3085.25 1026.65,3089C1029.57,3091.92 1054.15,3115.46 1073.94,3115.46C1077.07,3115.46 1079.78,3114.83 1082.28,3113.79L1082.9,3113.58L1083.32,3113.17C1085.19,3111.71 1094.57,3103.38 1091.24,3095.88C1089.99,3092.96 1079.78,3082.12 1066.86,3080.04L1066.03,3079.83L1065.19,3080.04C1064.57,3080.25 1060.19,3081.08 1053.94,3085.25C1051.86,3084.21 1047.69,3081.29 1040.82,3074.62C1034.15,3067.96 1031.24,3063.79 1030.19,3061.71C1034.15,3055.46 1035.19,3051.08 1035.4,3050.67L1035.61,3049.83L1035.4,3049C1033.32,3036.08 1022.28,3026.08 1019.36,3024.62C1018.53,3024.21 1017.49,3024 1016.24,3024Z"/>
                </g>
            </g>
            <g transform="matrix(0.329979,0,0,0.329979,-5945.59,9758.09)">
                <g transform="matrix(4.82984,0,0,3.85311,13638.2,-2445.2)">
                    <path d="M589.055,1666.5L555.513,1666.5C541.268,1666.5 529.59,1663.31 520.481,1656.95C511.371,1650.59 506.567,1642.45 506.069,1632.53C505.573,1624.27 505.035,1617.16 504.455,1611.21C503.875,1605.26 503.586,1602.37 503.586,1602.53L503.586,1392.3C503.586,1376.76 505.076,1364.53 508.056,1355.61C511.036,1346.68 516.541,1339.99 524.571,1335.53C532.602,1331.06 544.068,1328.83 558.972,1328.83L592.503,1328.83C608.398,1328.83 620.361,1333.79 628.391,1343.71C636.421,1353.62 640.436,1368.66 640.436,1388.83L640.436,1601.54C640.436,1618.07 638.783,1631.17 635.478,1640.84C632.172,1650.51 626.057,1657.41 617.132,1661.54C608.85,1664.84 599.491,1666.5 589.055,1666.5ZM581.928,1599.06L581.928,1392.8C581.928,1382.05 578.705,1376.68 572.259,1376.68C568.457,1376.68 565.813,1377.92 564.325,1380.4C562.838,1382.88 562.094,1387.51 562.094,1394.28L562.094,1603.53C562.094,1613.77 565.482,1618.9 572.259,1618.9C576.556,1618.9 579.242,1617.33 580.316,1614.18C581.39,1611.05 581.928,1606 581.928,1599.06Z" style="fill-rule:nonzero;"/>
                    <path d="M685.061,1377.18L685.061,1327.34L809.02,1327.34L809.02,1382.63L737.372,1666L680.599,1666L753.239,1377.18L685.061,1377.18Z" style="fill-rule:nonzero;"/>
                    <path d="M907.939,1446.1L849.431,1446.1L849.431,1392.3C849.431,1374.45 851.542,1360.94 855.764,1351.76C859.987,1342.59 867.107,1336.23 877.124,1332.67C887.141,1329.12 901.836,1327.34 921.207,1327.34C936.937,1327.34 949.604,1328.83 959.208,1331.81C968.812,1334.78 975.891,1340.15 980.444,1347.92C984.997,1355.69 987.273,1366.76 987.273,1381.14L987.273,1433.95C987.273,1450.31 985.455,1461.47 981.819,1467.42C978.183,1473.37 971.737,1478.82 962.481,1483.78C972.563,1489.57 979.216,1495.89 982.439,1502.75C985.662,1509.61 987.273,1518.99 987.273,1530.88L987.273,1598.57C987.273,1613.94 986.032,1626.04 983.548,1634.89C981.065,1643.73 977.05,1650.51 971.503,1655.22C965.956,1659.93 958.96,1662.98 950.515,1664.39C942.071,1665.79 931.226,1666.5 917.98,1666.5C901.421,1666.5 888.258,1665.09 878.489,1662.28C868.721,1659.47 861.436,1654.39 856.634,1647.03C851.832,1639.68 849.431,1629.39 849.431,1616.17L849.431,1527.91L907.939,1527.91L907.939,1600.55C907.939,1612.78 911.162,1618.9 917.608,1618.9C922.236,1618.9 925.252,1617.74 926.657,1615.42C928.062,1613.11 928.764,1608.81 928.764,1602.53L928.764,1526.92C928.764,1518.16 927.73,1512.33 925.662,1509.44C923.593,1506.55 918.586,1505.1 910.639,1505.1L896.737,1505.1L896.737,1462.95L911.139,1462.95C921.071,1462.95 926.285,1460.72 926.781,1456.26C928.103,1450.97 928.764,1447.25 928.764,1445.11L928.764,1388.83C928.764,1385.69 927.938,1382.59 926.285,1379.53C924.633,1376.47 922.236,1374.94 919.096,1374.94C911.658,1374.94 907.939,1381.23 907.939,1393.79L907.939,1446.1Z" style="fill-rule:nonzero;"/>
                    <path d="M1074.04,1327.34L1154.37,1327.34L1154.37,1546.75L1169.49,1546.75L1169.49,1591.87L1154.37,1591.87L1154.37,1666L1099.08,1666L1099.08,1591.87L1027.93,1591.87L1027.93,1540.55L1074.04,1327.34ZM1099.08,1546.75L1099.08,1426.76L1080.24,1546.75L1099.08,1546.75Z" style="fill-rule:nonzero;"/>
                </g>
                <g transform="matrix(4.84365,0,0,3.86412,18033.9,-2459.64)">
                    <path d="M548.459,1327.34L597.298,1327.34L597.298,1666L538.79,1666L538.79,1421.31L504.329,1421.31L504.329,1374.94C533.749,1372.96 548.459,1357.09 548.459,1327.34Z" style="fill-rule:nonzero;"/>
                    <path d="M681.59,1327.34L730.43,1327.34L730.43,1666L671.922,1666L671.922,1421.31L637.461,1421.31L637.461,1374.94C666.881,1372.96 681.59,1357.09 681.59,1327.34Z" style="fill-rule:nonzero;"/>
                    <path d="M830.093,1395.27L830.093,1445.11L771.585,1445.11L771.585,1387.34C771.585,1370.32 773.733,1357.55 778.03,1349.04C782.328,1340.53 788.98,1334.87 797.988,1332.06C806.996,1329.25 820.507,1327.84 838.522,1327.84C859.182,1327.84 874.512,1329.91 884.511,1334.04C894.511,1338.17 901.039,1344.58 904.097,1353.25C907.154,1361.93 908.683,1374.61 908.683,1391.31L908.683,1434.94C908.683,1443.2 908.022,1450.6 906.7,1457.13C905.378,1463.66 903.477,1470.14 900.998,1476.59C898.519,1483.04 895.502,1489.85 891.949,1497.04C888.395,1504.23 884.966,1511.13 881.66,1517.75L833.564,1618.15L908.683,1618.15L908.683,1666L770.593,1666L770.593,1616.17L843.729,1464.94C848.026,1455.52 850.175,1446.01 850.175,1436.43L850.175,1393.29C850.175,1381.56 847.034,1375.69 840.754,1375.69C833.647,1375.69 830.093,1382.22 830.093,1395.27Z" style="fill-rule:nonzero;"/>
                </g>
                <g transform="matrix(4.82384,0,0,3.84832,21084.3,-2440.97)">
                    <path d="M563.83,1395.27L563.83,1445.11L505.321,1445.11L505.321,1387.34C505.321,1370.32 507.47,1357.55 511.767,1349.04C516.064,1340.53 522.716,1334.87 531.724,1332.06C540.732,1329.25 554.243,1327.84 572.259,1327.84C592.919,1327.84 608.248,1329.91 618.247,1334.04C628.247,1338.17 634.775,1344.58 637.833,1353.25C640.891,1361.93 642.419,1374.61 642.419,1391.31L642.419,1434.94C642.419,1443.2 641.758,1450.6 640.436,1457.13C639.114,1463.66 637.213,1470.14 634.734,1476.59C632.255,1483.04 629.238,1489.85 625.685,1497.04C622.132,1504.23 618.702,1511.13 615.396,1517.75L567.3,1618.15L642.419,1618.15L642.419,1666L504.329,1666L504.329,1616.17L577.465,1464.94C581.762,1455.52 583.911,1446.01 583.911,1436.43L583.911,1393.29C583.911,1381.56 580.771,1375.69 574.49,1375.69C567.383,1375.69 563.83,1382.22 563.83,1395.27Z" style="fill-rule:nonzero;"/>
                    <path d="M728.695,1327.34L809.02,1327.34L809.02,1546.75L824.143,1546.75L824.143,1591.87L809.02,1591.87L809.02,1666L753.735,1666L753.735,1591.87L682.582,1591.87L682.582,1540.55L728.695,1327.34ZM753.735,1546.75L753.735,1426.76L734.893,1546.75L753.735,1546.75Z" style="fill-rule:nonzero;"/>
                    <path d="M1023.72,1325.36L1044.05,1325.36L885.131,1667.49L864.802,1667.49L1023.72,1325.36Z" style="fill-rule:nonzero;"/>
                    <path d="M1089.17,1377.18L1089.17,1327.34L1213.13,1327.34L1213.13,1382.63L1141.48,1666L1084.7,1666L1157.35,1377.18L1089.17,1377.18Z" style="fill-rule:nonzero;"/>
                </g>
                <g transform="matrix(5.64796,0,0,5.64796,14350.1,-4923.32)">
                    <path d="M1025,1543.75C1025,1537.82 1020.18,1533 1014.25,1533L992.75,1533C986.817,1533 982,1537.82 982,1543.75L982,1565.25C982,1571.18 986.817,1576 992.75,1576L1014.25,1576C1020.18,1576 1025,1571.18 1025,1565.25L1025,1543.75Z"/>
                </g>
                <g transform="matrix(5.64796,0,0,5.64796,17309.7,-4923.32)">
                    <path d="M1025,1543.75C1025,1537.82 1020.18,1533 1014.25,1533L992.75,1533C986.817,1533 982,1537.82 982,1543.75L982,1565.25C982,1571.18 986.817,1576 992.75,1576L1014.25,1576C1020.18,1576 1025,1571.18 1025,1565.25L1025,1543.75Z"/>
                </g>
            </g>
        </g>
        <g transform="matrix(4.12334,0,0,3.37712,15470.3,-24157.7)">
            <g>
                <g transform="matrix(0.252406,0,0,0.15267,-6250.93,10846.7)">
                    <rect x="13726" y="1810.78" width="7367" height="535.173" style="fill:rgb(0,86,255);"/>
                </g>
                <g transform="matrix(0.252406,0,0,0.15267,-4391.45,10846.7)">
                    <rect x="13726" y="1810.78" width="7367" height="535.173" style="fill:rgb(255,219,0);"/>
                </g>
                <g transform="matrix(0.252406,0,0,0.15267,-2531.98,10846.7)">
                    <rect x="13726" y="1810.78" width="7367" height="535.173" style="fill:rgb(255,48,0);"/>
                </g>
            </g>
        </g>
        <g transform="matrix(4.59623,0,0,4.59623,680.584,5499.24)">
            <g transform="matrix(3.37229,0,0,3.97082,-3322.54,-6340.99)">
                <path d="M1445,1956L1240.16,1956L1240.16,2079L1422.95,2079C1435.13,2079 1445,2070.62 1445,2060.28L1445,1956Z" style="fill:rgb(250,201,23);"/>
            </g>
            <path d="M1099.79,1814.46L1051.03,1502.02L941.723,1502.02L888.614,1838.26L972.072,1838.26L978.394,1771.71L1012.46,1771.71L1019.41,1838.26L1174.32,1838.26L1174.32,1677.45L1213.57,1838.26L1304.56,1838.26L1304.56,1502.02L1227.5,1502.02L1227.5,1671.9L1186.35,1502.02L1099.79,1502.02L1099.79,1814.46ZM1317.28,1502.02L1317.28,1838.26L1429.75,1838.26C1443.66,1838.26 1448.71,1837.76 1456.3,1837.76C1479.69,1836.75 1492.34,1833.22 1501.82,1826.16C1517.63,1814.06 1521.42,1802.47 1521.42,1762.14L1521.42,1726.37C1521.42,1680.5 1513.2,1665.86 1482.22,1656.78C1508.78,1649.71 1520.79,1633.56 1520.79,1603.32L1520.79,1559.5C1520.79,1534.79 1515.73,1523.19 1501.19,1513.11C1487.91,1504.54 1470.84,1502.02 1415.89,1502.02L1317.28,1502.02ZM1406.43,1781.79L1406.43,1688.58L1415.26,1688.58C1428.49,1688.58 1431.64,1692.1 1432.28,1706.72L1432.28,1766.17C1432.28,1778.27 1427.86,1781.79 1413.37,1781.79L1406.43,1781.79ZM1007.4,1716.31L983.452,1716.31L995.425,1585.72L1007.4,1716.31ZM1406.43,1626.5L1406.43,1556.47C1408.95,1556.47 1410.85,1556.98 1412.11,1556.98C1431.02,1556.98 1432.28,1557.98 1432.28,1583.17L1432.28,1605.84C1432.28,1623.98 1429.12,1626.5 1410.85,1626.5L1406.43,1626.5Z" style="fill:rgb(32,25,0);fill-rule:nonzero;"/>
            <path d="M1281.05,1974.57L1281.05,1962.61C1281.05,1954.73 1280.4,1952.07 1277.67,1949.27C1274.28,1945.72 1270.58,1944.95 1256.89,1944.95C1241.28,1944.95 1237.09,1945.59 1233.54,1948.13C1230.16,1950.54 1229.19,1953.59 1229.19,1960.58L1229.19,1970.5C1229.19,1981.05 1230.97,1983.72 1241.44,1988.43L1250.94,1992.62C1251.1,1992.75 1252.23,1993.13 1253.68,1993.77C1257.53,1995.42 1258.01,1996.06 1258.17,1999.24L1258.33,2001.02L1258.33,2012.59C1258.33,2015.01 1257.21,2016.4 1255.12,2016.4C1252.71,2016.4 1251.75,2015.01 1251.75,2011.57L1251.75,1995.17L1229.19,1995.17L1229.19,2010.43C1229.19,2016.15 1229.19,2018.06 1229.52,2019.71C1230,2022.88 1230.97,2024.91 1233.06,2026.69C1236.61,2029.87 1240.31,2030.5 1253.68,2030.5C1270.42,2030.5 1274.28,2029.74 1277.83,2025.93C1280.4,2023.26 1281.05,2020.85 1281.05,2013.48L1281.05,1999.87C1281.05,1988.43 1279.28,1986.14 1266.55,1980.54L1256.89,1976.35C1252.71,1974.57 1251.75,1973.55 1251.75,1970.75L1251.75,1964.52C1251.75,1961.72 1251.91,1961.09 1252.23,1960.32C1252.71,1959.43 1254,1958.8 1255.12,1958.8C1256.25,1958.8 1257.21,1959.43 1257.85,1960.32C1258.17,1960.96 1258.33,1961.85 1258.33,1964.52L1258.33,1974.57L1281.05,1974.57ZM1505.14,1974.57L1505.14,1963.37C1505.14,1954.1 1504.5,1951.68 1501.44,1948.76C1498.06,1945.46 1494.51,1944.95 1477.13,1944.95C1463.76,1944.95 1461.02,1945.46 1457.32,1948.64C1453.93,1951.68 1453.29,1953.84 1453.29,1964.77L1453.29,2006.1C1453.29,2010.05 1453.29,2013.99 1453.45,2015.89C1453.45,2020.98 1454.09,2023.13 1455.7,2025.17C1459.09,2029.48 1463.44,2030.5 1480.5,2030.5C1493.06,2030.5 1497.41,2029.74 1500.79,2027.2C1504.02,2024.66 1505.14,2021.1 1505.14,2013.99L1505.14,1994.4L1482.59,1994.4L1482.59,2009.92C1482.59,2015.13 1481.95,2016.4 1479.22,2016.4C1476.81,2016.4 1475.84,2015.13 1476,2012.08L1476,1965.54C1476,1959.81 1476.33,1958.8 1479.06,1958.8C1481.79,1958.8 1482.59,1959.94 1482.59,1964.77L1482.59,1974.57L1505.14,1974.57ZM1126.23,1974.57L1126.23,1962.61C1126.23,1954.73 1125.59,1952.07 1122.85,1949.27C1119.46,1945.72 1115.76,1944.95 1102.07,1944.95C1086.46,1944.95 1082.27,1945.59 1078.72,1948.13C1075.34,1950.54 1074.38,1953.59 1074.38,1960.58L1074.38,1970.5C1074.38,1981.05 1076.15,1983.72 1086.62,1988.43L1096.12,1992.62C1096.29,1992.75 1097.41,1993.13 1098.86,1993.77C1102.71,1995.42 1103.19,1996.06 1103.35,1999.24L1103.51,2001.02L1103.51,2012.59C1103.51,2015.01 1102.39,2016.4 1100.3,2016.4C1097.89,2016.4 1096.93,2015.01 1096.93,2011.57L1096.93,1995.17L1074.38,1995.17L1074.38,2010.43C1074.38,2016.15 1074.38,2018.06 1074.7,2019.71C1075.18,2022.88 1076.15,2024.91 1078.24,2026.69C1081.79,2029.87 1085.49,2030.5 1098.86,2030.5C1115.6,2030.5 1119.46,2029.74 1123.01,2025.93C1125.59,2023.26 1126.23,2020.85 1126.23,2013.48L1126.23,1999.87C1126.23,1988.43 1124.46,1986.14 1111.73,1980.54L1102.07,1976.35C1097.89,1974.57 1096.93,1973.55 1096.93,1970.75L1096.93,1964.52C1096.93,1961.72 1097.09,1961.09 1097.41,1960.32C1097.89,1959.43 1099.18,1958.8 1100.3,1958.8C1101.43,1958.8 1102.39,1959.43 1103.03,1960.32C1103.35,1960.96 1103.51,1961.85 1103.51,1964.52L1103.51,1974.57L1126.23,1974.57ZM1186.64,1974.57L1186.64,1962.61C1186.64,1954.73 1186,1952.07 1183.26,1949.27C1179.88,1945.72 1176.17,1944.95 1162.48,1944.95C1146.87,1944.95 1142.68,1945.59 1139.14,1948.13C1135.76,1950.54 1134.79,1953.59 1134.79,1960.58L1134.79,1970.5C1134.79,1981.05 1136.56,1983.72 1147.03,1988.43L1156.54,1992.62C1156.7,1992.75 1157.82,1993.13 1159.27,1993.77C1163.12,1995.42 1163.61,1996.06 1163.77,1999.24L1163.93,2001.02L1163.93,2012.59C1163.93,2015.01 1162.8,2016.4 1160.71,2016.4C1158.31,2016.4 1157.34,2015.01 1157.34,2011.57L1157.34,1995.17L1134.79,1995.17L1134.79,2010.43C1134.79,2016.15 1134.79,2018.06 1135.11,2019.71C1135.59,2022.88 1136.56,2024.91 1138.65,2026.69C1142.2,2029.87 1145.9,2030.5 1159.27,2030.5C1176.01,2030.5 1179.88,2029.74 1183.42,2025.93C1186,2023.26 1186.64,2020.85 1186.64,2013.48L1186.64,1999.87C1186.64,1988.43 1184.87,1986.14 1172.14,1980.54L1162.48,1976.35C1158.31,1974.57 1157.34,1973.55 1157.34,1970.75L1157.34,1964.52C1157.34,1961.72 1157.5,1961.09 1157.82,1960.32C1158.31,1959.43 1159.59,1958.8 1160.71,1958.8C1161.84,1958.8 1162.8,1959.43 1163.45,1960.32C1163.77,1960.96 1163.93,1961.85 1163.93,1964.52L1163.93,1974.57L1186.64,1974.57ZM1055.18,1945.46L1027.33,1945.46L1013.8,2030.25L1035.07,2030.25L1036.68,2013.46L1045.36,2013.46L1047.13,2030.25L1068.56,2030.25L1055.18,1945.46ZM1370.14,1945.46L1342.29,1945.46L1328.76,2030.25L1350.02,2030.25L1351.63,2013.46L1360.31,2013.46L1362.08,2030.25L1383.51,2030.25L1370.14,1945.46ZM1219.19,1945.46L1196.49,1945.46L1196.49,2030.25L1219.19,2030.25L1219.19,1945.46ZM1319.88,1959.18L1330.99,1959.18L1330.99,1945.46L1285.74,1945.46L1285.74,1959.18L1297.18,1959.18L1297.18,2030.25L1319.88,2030.25L1319.88,1959.18ZM968.027,2007.23L974.471,2007.11L974.471,1993.39L968.027,1993.39L968.027,1945.46L935.504,1945.46L919.072,1993.39L919.072,2007.23L945.472,2007.23L945.472,2030.25L968.027,2030.25L968.027,2007.23ZM1442.8,1945.46L1423.16,1945.46L1423.16,1988.3L1412.67,1945.46L1390.62,1945.46L1390.62,2030.25L1409.61,2030.25L1409.61,1989.7L1419.61,2030.25L1442.8,2030.25L1442.8,1945.46ZM859.625,1974.95L882.179,1974.95L882.179,1965.15C882.179,1959.94 882.822,1958.8 885.873,1958.8C888.282,1958.8 888.764,1959.69 888.764,1965.15L888.764,1972.28C888.764,1975.84 887.961,1978.13 885.552,1981.43L859.625,2016.53L859.625,2030.25L911.641,2030.25L911.641,2016.15L886.034,2016.15L905.68,1989.57C911.158,1982.07 911.641,1980.92 911.641,1974.69L911.641,1963.63C911.641,1954.73 911.158,1952.57 908.741,1949.65C905.841,1945.97 901.814,1944.95 891.181,1944.95L882.661,1944.95C871.214,1944.83 866.385,1945.84 863.166,1948.76C860.269,1951.56 859.625,1953.84 859.625,1963.25L859.625,1974.95ZM1537.85,1990.45L1550.41,1990.45L1550.41,1976.61L1537.85,1976.61L1537.85,1959.05L1550.41,1959.05L1550.41,1945.46L1515.15,1945.46L1515.15,2030.25L1550.41,2030.25L1550.41,2016.15L1537.85,2016.15L1537.85,1990.45ZM1044.07,1999.5L1037.96,1999.5L1041.02,1966.57L1044.07,1999.5ZM1359.02,1999.5L1352.92,1999.5L1355.97,1966.57L1359.02,1999.5ZM945.472,1993.39L937.921,1993.39L945.472,1963.9L945.472,1993.39Z" style="fill-rule:nonzero;"/>
        </g>
        <g transform="matrix(15.4998,0,0,18.2508,-14590.6,-23645.4)">
            <path d="M1447.38,1956L1447.38,1953.98L1237.77,1953.98L1237.77,2081.02L1422.95,2081.02C1436.45,2081.02 1447.38,2071.74 1447.38,2060.28L1447.38,1956ZM1442.62,1958.02L1442.62,2060.28C1442.62,2069.5 1433.81,2076.98 1422.95,2076.98L1242.54,2076.98C1242.54,2076.98 1242.54,1973.84 1242.54,1958.02C1242.54,1958.02 1442.62,1958.02 1442.62,1958.02L1442.62,1958.02Z"/>
        </g>
    </g>
</svg>
