<?xml version="1.0" encoding="UTF-8" standalone="no"?>
<!DOCTYPE svg PUBLIC "-//W3C//DTD SVG 1.1//EN" "http://www.w3.org/Graphics/SVG/1.1/DTD/svg11.dtd">
<svg width="100%" height="100%" viewBox="0 0 196 196" version="1.1" xmlns="http://www.w3.org/2000/svg" xmlns:xlink="http://www.w3.org/1999/xlink" xml:space="preserve" xmlns:serif="http://www.serif.com/" style="fill-rule:evenodd;clip-rule:evenodd;stroke-linejoin:round;stroke-miterlimit:2;">
    <g transform="matrix(1,0,0,1,-2503.73,-10687.4)">
        <g transform="matrix(2.10071,0,0,2.10071,-2586.32,11038.2)">
            <g transform="matrix(1,0,0,1,77.0165,76)">
                <circle cx="2392.5" cy="-196.5" r="46.5" style="fill:rgb(132,0,66);"/>
            </g>
        </g>
        <g transform="matrix(2.10071,0,0,2.10071,-2586.32,11038.2)">
            <g id="Mail" transform="matrix(1.55,5.73157e-32,1.91052e-32,1.55,1571.6,-735.075)">
                <path d="M560.176,382.802L559.693,383.16C559.426,383.381 559.181,383.626 558.96,383.893L558.602,384.376C558.027,385.246 557.693,386.29 557.693,387.412C557.693,392.318 557.693,400.682 557.693,405.588C557.693,406.71 558.027,407.754 558.602,408.624L558.96,409.107C559.181,409.374 559.426,409.619 559.693,409.84L560.176,410.198C561.046,410.773 562.09,411.107 563.212,411.107L595.388,411.107C596.479,411.107 597.495,410.791 598.351,410.245L598.907,409.84C599.174,409.619 599.419,409.374 599.64,409.107L599.998,408.624C600.573,407.754 600.907,406.71 600.907,405.588C600.907,400.682 600.907,392.318 600.907,387.412C600.907,386.26 600.555,385.19 599.951,384.306L599.64,383.893C599.419,383.626 599.174,383.381 598.907,383.16L598.424,382.802C597.554,382.227 596.51,381.893 595.388,381.893L563.212,381.893C562.09,381.893 561.046,382.227 560.176,382.802ZM572.3,399.473L574.063,401.237C575.468,402.641 577.384,403.407 579.3,403.407C581.343,403.407 583.132,402.641 584.537,401.237C584.537,401.237 586.3,399.473 586.3,399.473C586.3,399.473 592.719,405.893 592.719,405.893C592.719,405.893 565.881,405.893 565.881,405.893L572.3,399.473ZM589.268,396.505L595.693,390.081C595.693,390.081 595.693,402.993 595.693,402.993L589.268,396.505ZM569.327,396.5L562.907,402.919C562.907,402.919 562.907,390.081 562.907,390.081L569.327,396.5ZM581.563,398.264C580.964,398.863 580.165,399.193 579.3,399.193C578.435,399.193 577.635,398.862 577.037,398.263C577.037,398.263 565.881,387.107 565.881,387.107C565.881,387.107 592.639,387.107 592.639,387.107L581.563,398.264Z" style="fill:white;fill-rule:nonzero;"/>
            </g>
        </g>
    </g>
</svg>
