<?xml version="1.0" encoding="UTF-8" standalone="no"?>
<!DOCTYPE svg PUBLIC "-//W3C//DTD SVG 1.1//EN" "http://www.w3.org/Graphics/SVG/1.1/DTD/svg11.dtd">
<svg width="100%" height="100%" viewBox="0 0 1382 1382" version="1.1" xmlns="http://www.w3.org/2000/svg" xmlns:xlink="http://www.w3.org/1999/xlink" xml:space="preserve" xmlns:serif="http://www.serif.com/" style="fill-rule:evenodd;clip-rule:evenodd;stroke-linejoin:round;stroke-miterlimit:2;">
    <g transform="matrix(1,0,0,1,-4465.23,-4918)">
        <g transform="matrix(3.38725,0,0,3.38725,-2918.98,-2608.48)">
            <circle cx="2384" cy="2426" r="204" style="fill:white;"/>
        </g>
        <g transform="matrix(1,0,0,1,4029.79,3464.5)">
            <g transform="matrix(-0.0665006,-0.997786,0.997786,-0.0665006,-1574.16,2953.14)">
                <text x="594.356px" y="2212.94px" style="font-family:'Cambria-Bold', 'Cambria', serif;font-weight:700;font-size:125px;fill:rgb(61,0,12);">Ș</text>
            </g>
            <g transform="matrix(0.0506954,-0.998714,0.998714,0.0506954,-1584.96,2628.4)">
                <text x="590.125px" y="2147.93px" style="font-family:'Cambria-Bold', 'Cambria', serif;font-weight:700;font-size:125px;fill:rgb(61,0,12);">c</text>
            </g>
            <g transform="matrix(0.165974,-0.98613,0.98613,0.165974,-1567.03,2327.61)">
                <text x="592.533px" y="2090.21px" style="font-family:'Cambria-Bold', 'Cambria', serif;font-weight:700;font-size:125px;fill:rgb(61,0,12);">o</text>
            </g>
            <g transform="matrix(0.292799,-0.956174,0.956174,0.292799,-1503.74,2006.44)">
                <text x="604.534px" y="2019.79px" style="font-family:'Cambria-Bold', 'Cambria', serif;font-weight:700;font-size:125px;fill:rgb(61,0,12);">a</text>
            </g>
            <g transform="matrix(0.384845,-0.922981,0.922981,0.384845,-1421.2,1779.98)">
                <text x="624.747px" y="1956.18px" style="font-family:'Cambria-Bold', 'Cambria', serif;font-weight:700;font-size:125px;fill:rgb(61,0,12);">l</text>
            </g>
            <g transform="matrix(0.47488,-0.880051,0.880051,0.47488,-1354.43,1570.71)">
                <text x="638.959px" y="1920.3px" style="font-family:'Cambria-Bold', 'Cambria', serif;font-weight:700;font-size:125px;fill:rgb(61,0,12);">a</text>
            </g>
            <g transform="matrix(0.633694,-0.773584,0.773584,0.633694,-1170.57,1203.57)">
                <text x="685.595px" y="1837.83px" style="font-family:'Cambria-Bold', 'Cambria', serif;font-weight:700;font-size:125px;fill:rgb(61,0,12);">G</text>
            </g>
            <g transform="matrix(0.713916,-0.700231,0.700231,0.713916,-1032.64,1024.56)">
                <text x="737.554px" y="1776.05px" style="font-family:'Cambria-Bold', 'Cambria', serif;font-weight:700;font-size:125px;fill:rgb(61,0,12);">i</text>
            </g>
            <g transform="matrix(0.804762,-0.593598,0.593598,0.804762,-887.535,794.536)">
                <text x="764.077px" y="1746.49px" style="font-family:'Cambria-Bold', 'Cambria', serif;font-weight:700;font-size:125px;fill:rgb(61,0,12);">m</text>
            </g>
            <g transform="matrix(0.895413,-0.445237,0.445237,0.895413,-659.347,556.351)">
                <text x="854.545px" y="1681.63px" style="font-family:'Cambria-Bold', 'Cambria', serif;font-weight:700;font-size:125px;fill:rgb(61,0,12);">n</text>
            </g>
            <g transform="matrix(0.946654,-0.322253,0.322253,0.946654,-481.949,385.131)">
                <text x="922.27px" y="1648.24px" style="font-family:'Cambria-Bold', 'Cambria', serif;font-weight:700;font-size:125px;fill:rgb(61,0,12);">a</text>
            </g>
            <g transform="matrix(0.978217,-0.207586,0.207586,0.978217,-316.245,240.045)">
                <text x="985.649px" y="1626.87px" style="font-family:'Cambria-Bold', 'Cambria', serif;font-weight:700;font-size:125px;fill:rgb(61,0,12);">z</text>
            </g>
            <g transform="matrix(0.993286,-0.115684,0.115684,0.993286,-179.806,131.665)">
                <text x="1044.41px" y="1614.9px" style="font-family:'Cambria-Bold', 'Cambria', serif;font-weight:700;font-size:125px;fill:rgb(61,0,12);">i</text>
            </g>
            <g transform="matrix(0.999848,-0.0174397,0.0174397,0.999848,-27.9074,19.1395)">
                <text x="1083.43px" y="1609.67px" style="font-family:'Cambria-Bold', 'Cambria', serif;font-weight:700;font-size:125px;fill:rgb(61,0,12);">a</text>
            </g>
            <g transform="matrix(0.996896,0.0787306,-0.0787306,0.996896,130.263,-85.5735)">
                <text x="1150.36px" y="1609.19px" style="font-family:'Cambria-Bold', 'Cambria', serif;font-weight:700;font-size:125px;fill:rgb(61,0,12);">l</text>
            </g>
            <g transform="matrix(0.984106,0.177582,-0.177582,0.984106,305.082,-185.536)">
                <text x="1189.03px" y="1611.56px" style="font-family:'Cambria-Bold', 'Cambria', serif;font-weight:700;font-size:125px;fill:rgb(61,0,12);">ă</text>
            </g>
            <g transform="matrix(0.931175,0.364573,-0.364573,0.931175,682.483,-355.058)">
                <text x="1281.63px" y="1630.06px" style="font-family:'Cambria-Bold', 'Cambria', serif;font-weight:700;font-size:125px;fill:rgb(61,0,12);">N</text>
            </g>
            <g transform="matrix(0.873131,0.487485,-0.487485,0.873131,982.757,-452.433)">
                <text x="1360.6px" y="1661.87px" style="font-family:'Cambria-Bold', 'Cambria', serif;font-weight:700;font-size:125px;fill:rgb(61,0,12);">r</text>
            </g>
            <g transform="matrix(0.84478,0.535113,-0.535113,0.84478,1118.49,-487.895)">
                <text x="1400.24px" y="1684.03px" style="font-family:'Cambria-Bold', 'Cambria', serif;font-weight:700;font-size:125px;fill:rgb(61,0,12);">.</text>
            </g>
            <g transform="matrix(0.756297,0.654229,-0.654229,0.756297,1474.65,-529.434)">
                <text x="1447.96px" y="1714.65px" style="font-family:'Cambria-Bold', 'Cambria', serif;font-weight:700;font-size:125px;fill:rgb(61,0,12);">1</text>
            </g>
            <g transform="matrix(0.622662,0.782491,-0.782491,0.622662,1969.89,-519.007)">
                <text x="1523.08px" y="1782.99px" style="font-family:'Cambria-Bold', 'Cambria', serif;font-weight:700;font-size:125px;fill:rgb(61,0,12);">C</text>
            </g>
            <g transform="matrix(0.517508,0.855679,-0.855679,0.517508,2330.18,-454.022)">
                <text x="1567.68px" y="1839.22px" style="font-family:'Cambria-Bold', 'Cambria', serif;font-weight:700;font-size:125px;fill:rgb(61,0,12);">ă</text>
            </g>
            <g transform="matrix(0.431559,0.902085,-0.902085,0.431559,2621.63,-366.629)">
                <text x="1601.72px" y="1896.88px" style="font-family:'Cambria-Bold', 'Cambria', serif;font-weight:700;font-size:125px;fill:rgb(61,0,12);">l</text>
            </g>
            <g transform="matrix(0.339727,0.940524,-0.940524,0.339727,2885.26,-247.518)">
                <text x="1618.92px" y="1931.19px" style="font-family:'Cambria-Bold', 'Cambria', serif;font-weight:700;font-size:125px;fill:rgb(61,0,12);">ă</text>
            </g>
            <g transform="matrix(0.224768,0.974412,-0.974412,0.224768,3215.93,-53.4157)">
                <text x="1641.53px" y="1994.39px" style="font-family:'Cambria-Bold', 'Cambria', serif;font-weight:700;font-size:125px;fill:rgb(61,0,12);">r</text>
            </g>
            <g transform="matrix(0.116076,0.99324,-0.99324,0.116076,3497.02,167.388)">
                <text x="1654.46px" y="2048.44px" style="font-family:'Cambria-Bold', 'Cambria', serif;font-weight:700;font-size:125px;fill:rgb(61,0,12);">a</text>
            </g>
            <g transform="matrix(0.00158568,0.999999,-0.999999,0.00158568,3774.29,449.673)">
                <text x="1661.95px" y="2114.98px" style="font-family:'Cambria-Bold', 'Cambria', serif;font-weight:700;font-size:125px;fill:rgb(61,0,12);">ș</text>
            </g>
            <g transform="matrix(-0.0877919,0.996139,-0.996139,-0.0877919,3971.53,707.888)">
                <text x="1661.65px" y="2172.4px" style="font-family:'Cambria-Bold', 'Cambria', serif;font-weight:700;font-size:125px;fill:rgb(61,0,12);">i</text>
            </g>
        </g>
        <g transform="matrix(1,0,0,1,3946.21,3380.92)">
            <g transform="matrix(0.836846,0.547439,-0.547439,0.836846,1637.18,-21.8712)">
                <text x="855.283px" y="2735.72px" style="font-family:'Cambria-Bold', 'Cambria', serif;font-weight:700;font-size:125px;fill:rgb(61,0,12);">J</text>
            </g>
            <g transform="matrix(0.886097,0.4635,-0.4635,0.886097,1380.55,-98.4632)">
                <text x="890.612px" y="2759.67px" style="font-family:'Cambria-Bold', 'Cambria', serif;font-weight:700;font-size:125px;fill:rgb(61,0,12);">u</text>
            </g>
            <g transform="matrix(0.936267,0.35129,-0.35129,0.936267,1042.64,-158.061)">
                <text x="956.929px" y="2794.43px" style="font-family:'Cambria-Bold', 'Cambria', serif;font-weight:700;font-size:125px;fill:rgb(61,0,12);">d</text>
            </g>
            <g transform="matrix(0.9621,0.272695,-0.272695,0.9621,807.884,-173.24)">
                <text x="1027.19px" y="2819.83px" style="font-family:'Cambria-Bold', 'Cambria', serif;font-weight:700;font-size:125px;fill:rgb(61,0,12);">.</text>
            </g>
            <g transform="matrix(0.989996,0.141095,-0.141095,0.989996,410.847,-124.248)">
                <text x="1081.62px" y="2835.17px" style="font-family:'Cambria-Bold', 'Cambria', serif;font-weight:700;font-size:125px;fill:rgb(61,0,12);">B</text>
            </g>
            <g transform="matrix(0.999811,0.0194209,-0.0194209,0.999811,55.4979,-22.0354)">
                <text x="1162.27px" y="2846.34px" style="font-family:'Cambria-Bold', 'Cambria', serif;font-weight:700;font-size:125px;fill:rgb(61,0,12);">o</text>
            </g>
            <g transform="matrix(0.99705,-0.0767592,0.0767592,0.99705,-214.909,103.092)">
                <text x="1233.62px" y="2847.2px" style="font-family:'Cambria-Bold', 'Cambria', serif;font-weight:700;font-size:125px;fill:rgb(61,0,12);">t</text>
            </g>
            <g transform="matrix(0.986325,-0.164811,0.164811,0.986325,-451.34,249.459)">
                <text x="1277.59px" y="2844.54px" style="font-family:'Cambria-Bold', 'Cambria', serif;font-weight:700;font-size:125px;fill:rgb(61,0,12);">o</text>
            </g>
            <g transform="matrix(0.963778,-0.266706,0.266706,0.963778,-706.615,462.043)">
                <text x="1347.72px" y="2832.45px" style="font-family:'Cambria-Bold', 'Cambria', serif;font-weight:700;font-size:125px;fill:rgb(61,0,12);">ș</text>
            </g>
            <g transform="matrix(0.931874,-0.362783,0.362783,0.931874,-926.518,700.947)">
                <text x="1403.06px" y="2817.39px" style="font-family:'Cambria-Bold', 'Cambria', serif;font-weight:700;font-size:125px;fill:rgb(61,0,12);">a</text>
            </g>
            <g transform="matrix(0.883624,-0.468197,0.468197,0.883624,-1137.24,1011.3)">
                <text x="1465.69px" y="2793.29px" style="font-family:'Cambria-Bold', 'Cambria', serif;font-weight:700;font-size:125px;fill:rgb(61,0,12);">n</text>
            </g>
            <g transform="matrix(0.836846,-0.547439,0.547439,0.836846,-1259.53,1288.46)">
                <text x="1531.85px" y="2757.32px" style="font-family:'Cambria-Bold', 'Cambria', serif;font-weight:700;font-size:125px;fill:rgb(61,0,12);">i</text>
            </g>
        </g>
        <g transform="matrix(0.455337,0,0,0.455337,1821.79,2990.69)">
            <g transform="matrix(-0.579685,-7.77913e-17,7.0991e-17,-0.635214,8421.54,7196.57)">
                <path d="M1935.94,2067.82L1935.94,1663.4C1935.94,1643.93 1943.67,1625.26 1957.43,1611.5C1971.2,1597.73 1989.87,1590 2009.34,1590L2082.64,1590C2115.38,1590 2144.16,1611.68 2153.19,1643.15C2199.6,1804.88 2335.94,2280 2335.94,2280C2160.47,2351.28 2060.46,2504.89 1979.79,2679.57C1971.22,2698.14 1971.85,2719.18 1981.52,2737.3C1983.69,2741.38 1984.94,2746.05 1984.94,2751C1984.94,2751 1984.94,2751 1984.94,2751C1984.94,2767.02 1971.95,2780 1955.94,2780L1935.94,2780L1935.94,2302.18C1994.47,2295.25 2039.94,2245.39 2039.94,2185C2039.94,2124.61 1994.47,2074.75 1935.94,2067.82Z" style="fill:rgb(162,115,32);"/>
            </g>
            <g transform="matrix(-0.579685,-7.77913e-17,7.0991e-17,-0.635214,8421.54,7196.57)">
                <path d="M1908.94,2302.29L1908.94,2780L1888.94,2780C1872.92,2780 1859.94,2767.02 1859.94,2751C1859.94,2751 1859.94,2751 1859.94,2751C1859.94,2746.05 1861.18,2741.38 1863.37,2737.31C1873.04,2719.18 1873.66,2698.14 1865.09,2679.56C1784.41,2504.89 1684.41,2351.28 1508.94,2280C1508.94,2280 1645.28,1804.88 1691.68,1643.15C1700.72,1611.68 1729.5,1590 1762.24,1590L1835.54,1590C1855,1590 1873.67,1597.73 1887.44,1611.5C1901.2,1625.26 1908.94,1643.93 1908.94,1663.4L1908.94,2067.71C1849.91,2074.19 1803.94,2124.27 1803.94,2185C1803.94,2245.73 1849.91,2295.81 1908.94,2302.29Z" style="fill:rgb(88,38,48);"/>
            </g>
            <g transform="matrix(0.894337,0,0,0.980007,3419.22,2964.98)">
                <path d="M4601.06,3830C4540.47,3781.46 4504.28,3712.42 4500.89,3638.91C4494.79,3506.95 4485.64,3308.63 4485.64,3308.63C4475.4,3314.61 4463.55,3317.97 4451.09,3317.97C4451.09,3317.97 4403.58,3317.97 4403.58,3317.97C4385.39,3317.97 4367.96,3310.74 4355.1,3297.89C4352.19,3294.98 4349.57,3291.83 4347.25,3288.49C4344.94,3291.83 4342.31,3294.98 4339.4,3297.89C4326.55,3310.74 4309.11,3317.97 4290.93,3317.97C4290.93,3317.97 4243.41,3317.97 4243.41,3317.97C4230.95,3317.97 4219.1,3314.61 4208.87,3308.63C4208.87,3308.63 4200.27,3494.87 4194.19,3626.48C4190.47,3707.13 4147.01,3781.93 4075.94,3830C4075.94,3830 4075.94,3830 4075.94,3830L4601.06,3830C4601.06,3830 4601.06,3830 4601.06,3830Z" style="fill:rgb(88,38,48);"/>
            </g>
            <g transform="matrix(1.35259,0,0,1.35259,-1014.63,1817.99)">
                <path d="M5869.32,3286.46C5872.79,3282.87 5876.04,3278.52 5879.04,3273.54C5903.89,3282.82 5930.78,3287.9 5958.84,3287.9C5988.67,3287.9 6001.16,3285.23 6027.28,3274.81C6040.1,3269.7 6046.36,3255.15 6041.24,3242.33C6036.14,3229.52 6021.58,3223.26 6008.77,3228.37C5988.37,3236.5 5982.12,3237.9 5958.84,3237.9C5936.81,3237.9 5915.71,3233.9 5896.21,3226.58C5903.14,3193.08 5903.31,3154.34 5899.03,3132.92C5897.86,3127.09 5892.71,3115.67 5889.61,3109.14C5913.64,3101.31 5938.96,3095.76 5963.11,3093.08C5965.02,3092.86 5966.84,3092.44 5968.58,3091.84C5970.85,3092.01 5973.11,3092.1 5975.35,3092.1C5989.15,3092.1 6000.35,3080.9 6000.35,3067.1C6000.35,3053.3 5989.15,3042.1 5975.35,3042.1C5959.69,3042.1 5943.15,3034.23 5927.16,3025.12C5907.62,3013.99 5889.1,3000.36 5873.93,2990.49C5855.88,2978.76 5839.37,2963.48 5822.14,2949.7C5814.43,2943.53 5806.58,2937.64 5798.47,2932.32C5804.78,2929.84 5811.2,2927.09 5817.78,2924.02C5870.86,2899.26 5909,2869.59 5967.03,2848.48C5970.74,2847.14 5974.43,2845.34 5978.14,2843.62C5980.62,2854.82 5990.61,2863.21 6002.55,2863.21C6016.35,2863.21 6027.55,2852.01 6027.55,2838.21C6027.55,2802 6011.45,2763.22 5985.59,2728.78C5948.42,2679.28 5891.44,2639.02 5840.73,2627.32C5816.91,2621.82 5766.44,2599.74 5724.88,2591.38C5722.21,2580.05 5720.8,2568.24 5720.8,2556.1C5720.8,2538.55 5723.75,2521.69 5729.18,2505.98C5730.18,2507.11 5731.2,2508.21 5732.25,2509.26C5754.12,2531.13 5777.07,2552.69 5805.64,2565.73C5870.28,2595.24 5950.01,2615.2 6021.83,2609.19C6023.97,2611.45 6026.08,2613.73 6028.16,2616.03C6048.37,2638.32 6065.68,2661.96 6065.68,2692.8C6065.68,2706.6 6076.88,2717.8 6090.68,2717.8C6104.47,2717.8 6115.68,2706.6 6115.68,2692.8C6115.68,2649.01 6093.9,2614.1 6065.2,2582.44C6050.39,2566.11 6033.66,2550.71 6018.54,2534.82C6021.1,2532.83 6023.66,2530.29 6026.07,2527.06C6035.8,2514.03 6051.36,2480.78 6053.03,2474.95C6061.77,2444.37 6060.32,2414.72 6055.56,2383.81C6052.03,2360.85 6046.59,2337.1 6043.58,2311.35C6069.15,2292.3 6100.85,2281.02 6135.15,2281.02C6187.97,2281.02 6234.58,2307.75 6262.2,2348.39C6186.74,2417.34 6110.13,2494.18 6142.13,2629.61C6145.3,2643.04 6158.78,2651.37 6172.2,2648.19C6185.63,2645.02 6193.96,2631.55 6190.79,2618.12C6190.29,2616 6189.82,2613.91 6189.39,2611.84C6195.2,2611.1 6199.7,2609.43 6208.65,2605.86C6246.23,2590.83 6276.67,2566.23 6303.77,2537.73C6313.1,2576.66 6328.75,2617.5 6340.45,2648.7C6351.26,2677.53 6349.16,2689.55 6348.69,2715.44C6321.03,2749.24 6313.43,2758.66 6287.53,2799.95C6285.16,2803.72 6283.93,2807.88 6283.74,2812.03C6283.53,2816.18 6284.36,2820.44 6286.35,2824.42C6286.4,2824.52 6286.44,2824.62 6286.49,2824.71C6287.31,2826.3 6288.3,2827.8 6289.46,2829.2L6289.53,2829.28L6289.63,2829.41L6289.65,2829.43L6289.67,2829.45L6289.72,2829.51L6289.81,2829.61L6289.85,2829.66L6289.87,2829.68L6289.93,2829.75L6289.99,2829.82L6290.04,2829.88L6290.08,2829.92L6290.13,2829.98L6290.18,2830.03L6290.24,2830.09L6290.3,2830.16L6290.34,2830.2L6290.38,2830.24L6290.44,2830.31L6290.52,2830.39L6290.55,2830.43L6290.57,2830.46L6290.64,2830.52L6290.74,2830.63L6290.76,2830.65L6290.78,2830.67C6292.1,2832.02 6293.55,2833.21 6295.11,2834.22L6295.15,2834.24L6295.32,2834.36L6295.42,2834.42C6299.53,2837 6304.11,2838.23 6308.63,2838.24C6311.26,2838.25 6313.92,2837.84 6316.51,2836.98C6317.06,2836.8 6317.6,2836.61 6318.14,2836.39C6320.55,2836.43 6343.15,2836.92 6362.9,2840.05C6396.56,2845.39 6439.68,2855.09 6479.38,2865.36C6473.34,2874.48 6460.49,2893.82 6457.75,2897.11C6429.6,2930.89 6404.64,2958.14 6358.83,2958.14C6345.03,2958.14 6333.83,2969.35 6333.83,2983.14C6333.83,2996.94 6345.03,3008.14 6358.83,3008.14C6421.27,3008.14 6457.78,2975.17 6496.16,2929.12C6500.31,2924.14 6518.55,2899.07 6525.68,2885.96C6527.03,2883.49 6528.07,2881.14 6528.88,2878.97C6545.73,2883.92 6560.36,2888.6 6571.22,2892.55C6604.74,2904.73 6634.54,2921.24 6665.81,2937.07C6635.91,2945.16 6607.12,2958.33 6578.17,2979.63C6536.2,3010.52 6499.43,3052.1 6447.39,3065.11C6440.83,3066.75 6434.8,3069.66 6429.1,3072.82C6427.6,3073.65 6425.23,3074.87 6423.74,3075.62C6423.54,3075.46 6423.35,3075.29 6423.15,3075.12C6402.6,3058 6358.13,3042.1 6329.93,3042.1C6316.13,3042.1 6304.93,3053.3 6304.93,3067.1C6304.93,3080.9 6316.13,3092.1 6329.93,3092.1C6348.42,3092.1 6377.66,3102.3 6391.14,3113.54C6410.15,3129.38 6420.85,3152.66 6428.62,3177.68C6437.61,3206.64 6442.42,3238.05 6448.03,3266.11C6450.11,3276.48 6456.71,3290.48 6463.21,3303.57C6465.76,3308.72 6469.01,3316.38 6470.43,3319.78C6447.06,3322.45 6419.45,3317.58 6392.58,3305.3C6363.74,3292.12 6340.97,3272.6 6327.88,3251.3C6324.97,3246.56 6320.56,3242.93 6315.35,3240.98C6305.45,3237.27 6305.9,3236.31 6296.73,3230.66C6284.99,3223.41 6269.57,3227.07 6262.33,3238.81C6255.09,3250.55 6258.74,3265.97 6270.48,3273.21C6280.02,3279.09 6279.87,3280.47 6290.02,3284.71C6308.05,3310.63 6336.27,3334.54 6371.8,3350.78C6426.59,3375.81 6483.72,3375.47 6521.58,3356.16C6531.92,3350.88 6537.27,3339.18 6534.49,3327.9C6534.45,3327.75 6534.41,3327.6 6534.37,3327.44C6537.43,3327.65 6540.51,3327.75 6543.61,3327.75C6581.5,3327.75 6615.82,3312.33 6640.61,3287.4C6756.37,3279.79 6848.7,3185.74 6853.58,3069.23C6853.62,3069.12 6853.66,3069.01 6853.7,3068.9C6874.04,3012.2 6868.89,2955.3 6846.45,2919.2C6840.33,2909.34 6828.21,2904.99 6817.21,2908.71C6812.18,2910.41 6807.16,2912.52 6802.18,2915.01C6801.68,2914.4 6801.18,2913.8 6800.68,2913.19C6811.91,2885.68 6818.11,2855.6 6818.11,2824.08C6818.11,2743.12 6777.28,2671.63 6715.1,2629.09C6718.19,2625.08 6721.18,2620.96 6724.02,2616.78C6725.32,2615.09 6726.51,2613.47 6727.6,2611.91C6731.48,2606.39 6734.27,2601.27 6736.23,2596.74C6743.24,2583.7 6748.22,2570.9 6749.84,2559.92C6751.54,2548.43 6745.11,2537.29 6734.31,2533.01C6709.01,2523 6670.03,2519.28 6633.12,2526.52C6618.8,2428.22 6534.05,2352.61 6431.79,2352.61C6429.08,2352.61 6426.39,2352.66 6423.71,2352.77C6427.03,2337.75 6427.9,2323.15 6426.33,2309.66C6424.99,2298.12 6415.89,2289.03 6404.35,2287.7C6373.07,2284.11 6335.58,2293.89 6300.94,2316.55C6264.05,2264.79 6203.51,2231.02 6135.15,2231.02C6097.39,2231.02 6062.02,2241.32 6031.69,2259.28C6028.21,2251.54 6024.13,2244.4 6019.5,2237.99C6012.72,2228.56 6000.34,2225.05 5989.62,2229.52C5950.38,2245.84 5913.1,2289.14 5896.68,2347.1C5896.06,2349.28 5895.48,2351.47 5894.93,2353.65C5888.14,2352.96 5881.25,2352.61 5874.28,2352.61C5761.98,2352.61 5670.8,2443.79 5670.8,2556.1C5670.8,2567.38 5671.72,2578.45 5673.49,2589.24C5666.77,2589.99 5660.14,2591.09 5653.64,2592.51C5653.35,2591.98 5653.05,2591.45 5652.75,2590.93C5646.96,2580.87 5635.01,2576.11 5623.89,2579.45C5583.18,2591.68 5541.67,2630.93 5519.41,2686.91C5514.75,2698.61 5511.19,2710.37 5508.67,2721.95C5501.87,2741.93 5498.17,2763.34 5498.17,2785.61C5498.17,2839.54 5519.81,2888.46 5554.89,2924.13C5539.31,2937.16 5525.49,2952.22 5513.86,2968.92C5504.83,2967.4 5495.47,2970.95 5489.76,2978.52C5464.18,3012.47 5453.94,3068.67 5469.11,3126.97C5472.44,3139.75 5476.77,3151.87 5481.91,3163.16C5504.65,3241.42 5568.2,3302.4 5647.95,3321.49C5646.64,3326.52 5645.66,3331.52 5645.04,3336.46C5643.58,3347.98 5650.25,3358.99 5661.14,3363.03C5700.98,3377.83 5757.76,3371.55 5809.28,3340.34C5834.09,3325.31 5854.39,3306.54 5869.32,3286.46ZM5843.28,3128.29C5794.39,3155.01 5764.23,3201.48 5734.9,3248.42C5723.39,3266.83 5716.99,3288.99 5707.48,3308.01C5707.02,3308.93 5706.52,3309.81 5705.97,3310.64C5705.56,3311.72 5705.08,3312.78 5704.52,3313.81C5703.27,3316.13 5702.12,3318.45 5701.07,3320.77C5726.1,3322.39 5755.69,3314.35 5783.37,3297.58C5812.45,3279.96 5833.77,3255.94 5843.48,3231.59C5843.57,3231.36 5843.67,3231.12 5843.77,3230.89C5845.07,3226.41 5846.18,3221.6 5847.21,3216.67C5852.7,3190.24 5853.38,3159.64 5850,3142.73C5849.15,3138.47 5845.72,3133.05 5843.28,3128.29ZM6471.82,3110.04C6467.79,3111.38 6463.7,3112.57 6459.52,3113.62C6458.29,3113.92 6457.12,3114.36 6456,3114.88C6461.24,3123.94 6465.76,3133.59 6469.69,3143.66C6483.57,3179.26 6489.87,3220.32 6497.06,3256.3C6497.66,3259.3 6498.85,3262.66 6500.38,3266.22C6513.11,3273.56 6527.88,3277.75 6543.61,3277.75C6570.12,3277.75 6593.86,3265.85 6609.79,3247.1C6590.59,3238.58 6573.98,3226.34 6557.62,3206.71C6543.8,3190.12 6528.97,3163.42 6511.48,3140.84C6499.82,3125.77 6487.88,3111.27 6471.82,3110.04ZM5519.4,3027.39C5510.14,3051.08 5509.18,3082.38 5517.5,3114.38C5520.22,3124.83 5523.8,3134.71 5528.07,3143.86C5528.64,3145.1 5529.12,3146.37 5529.48,3147.68C5547.62,3212.24 5601.23,3262.03 5667.9,3274.64C5675.65,3257.08 5682.33,3238.19 5692.5,3221.92C5697.09,3214.57 5701.73,3207.26 5706.47,3200.03C5706.02,3198.94 5705.65,3197.81 5705.36,3196.64C5701.26,3180.22 5685.6,3160.95 5666.18,3140.76C5632.78,3106.04 5587.19,3070.7 5552.33,3047.24C5540.41,3039.21 5527.64,3031.91 5519.4,3027.39ZM6576.14,3044.58C6559.61,3057.85 6543.06,3071.21 6525.57,3082.86C6530.2,3086.79 6534.67,3091.14 6538.98,3095.85C6561.36,3120.3 6579.44,3154.78 6596.03,3174.7C6617.09,3199.97 6639.43,3206.81 6671.33,3213.19C6683.4,3215.61 6691.19,3219.26 6703.48,3219.94C6752.08,3196.22 6788.34,3151.06 6799.88,3096.78C6724.43,3116.61 6672.43,3106.91 6624.99,3078.15C6617.51,3073.61 6587.86,3055.22 6576.14,3044.58ZM5599.24,2953.1C5583.82,2963.87 5570.19,2977.01 5558.86,2992C5565.41,2995.99 5572.6,3000.61 5580.25,3005.75C5624.04,3035.22 5683.39,3082.3 5719.47,3125.2C5727.53,3134.78 5734.44,3144.26 5740.01,3153.39C5765.93,3121.36 5796.25,3093.83 5835.9,3076.21C5851.51,3069.27 5868.2,3063.2 5885.3,3058.14C5871.23,3049.14 5858.04,3039.8 5846.67,3032.41C5827.28,3019.81 5809.41,3003.55 5790.9,2988.74C5775.62,2976.5 5759.97,2965.16 5741.67,2959.78C5727.85,2955.72 5701.4,2954.06 5686.84,2954.06C5685.39,2954.06 5683.97,2953.94 5682.59,2953.7C5656.76,2954.26 5629.74,2953.24 5599.24,2953.1ZM6810.01,3041.67C6817.91,3014.7 6818.82,2988.21 6812.99,2966.75C6812.27,2967.27 6811.55,2967.8 6810.83,2968.35C6809.03,2969.71 6807.08,2970.81 6805.03,2971.63C6801.53,2973.49 6797.54,2974.55 6793.3,2974.55C6727.16,2974.55 6672.2,2977.05 6617.65,3013.03C6628.37,3020.37 6646.39,3032.64 6650.92,3035.39C6692.74,3060.75 6739.05,3064.85 6810.01,3041.67ZM6752.4,2749.2C6734.61,2751.38 6714.22,2760.16 6694.31,2772.78C6662.79,2792.76 6632.54,2822.79 6616.2,2856.83C6642.67,2868.52 6667.65,2882.11 6693.76,2895.16C6709.26,2902.91 6728.36,2902.46 6744.45,2906.48C6745.83,2906.83 6747.29,2906.83 6748.79,2906.68L6748.79,2906.67C6761.16,2881.77 6768.11,2853.73 6768.11,2824.08C6768.11,2797.45 6762.5,2772.12 6752.4,2749.2ZM5890.76,2705.36C5809.92,2790.13 5669.59,2805.68 5600.81,2795.37C5583.57,2792.78 5565.24,2790.62 5548.17,2785.4L5548.17,2785.61C5548.17,2833.56 5571.09,2876.19 5606.55,2903.17C5677.71,2904.07 5728.56,2910.46 5796.64,2878.71C5851.11,2853.3 5890.4,2823.15 5949.94,2801.49C5955.65,2799.42 5961.44,2797.03 5967.29,2794.85C5961.77,2782.53 5954.3,2770.39 5945.61,2758.8C5930.4,2738.56 5911.27,2719.98 5890.76,2705.36ZM6676.1,2663.52C6661.72,2674.87 6644.44,2686.9 6623.92,2699.1C6589.8,2719.4 6550.36,2724.42 6509.43,2723.65C6477.34,2723.04 6444.31,2718.87 6412.9,2717.97C6404,2727.46 6395.56,2737.11 6387.62,2746.82C6372.84,2764.88 6364.13,2775.55 6354.95,2788.41C6359.96,2789.04 6365.24,2789.8 6370.73,2790.67C6430.4,2800.13 6518.57,2822.78 6569.35,2839.11C6589.43,2795.29 6627.27,2756.07 6667.55,2730.54C6686.51,2718.53 6706,2709.6 6724.39,2704.3C6710.76,2688.12 6694.43,2674.3 6676.1,2663.52ZM5695.72,2637.99C5678.85,2638 5662.64,2640.83 5647.55,2646.06C5641.18,2648.27 5634.19,2647.81 5628.16,2644.79C5624.32,2642.86 5621.07,2639.99 5618.7,2636.5C5597.28,2650.14 5578.06,2674.75 5565.87,2705.39C5562.09,2714.88 5559.24,2724.41 5557.27,2733.79C5557.15,2734.39 5557,2734.98 5556.83,2735.56C5572.85,2742.26 5591.31,2743.38 5608.23,2745.92C5663.85,2754.26 5775.11,2743.94 5844.68,2680.55C5839.57,2678.71 5834.5,2677.19 5829.49,2676.04C5802.45,2669.8 5739,2639.31 5698.11,2638.17C5697.3,2638.14 5696.51,2638.08 5695.72,2637.99ZM6690.85,2575.33C6608.18,2575.51 6527.99,2616.25 6462.53,2671C6478.5,2672.21 6494.55,2673.36 6510.37,2673.66C6541.74,2674.25 6572.22,2671.68 6598.36,2656.13C6655.17,2622.33 6687.53,2580.54 6690.67,2576.38C6690.72,2576.03 6690.78,2575.68 6690.85,2575.33ZM6492.39,2415.06C6473.8,2407.05 6453.31,2402.61 6431.79,2402.61C6421.34,2402.61 6411.14,2403.65 6401.27,2405.64C6385.9,2432.77 6368.4,2459.54 6360.1,2470.21C6355.44,2476.2 6350.76,2482.21 6346.03,2488.18C6348.62,2533.36 6372.21,2590.98 6387.27,2631.15C6392.09,2644 6394.97,2654.13 6396.66,2663.33C6421.66,2639.15 6449.3,2616.53 6478.85,2596.88C6473.42,2577.93 6465.66,2559.77 6463.81,2539.38C6458.95,2485.96 6472.35,2455.25 6492.39,2415.06ZM6534.61,2442.18C6520.07,2471.06 6509.98,2495.01 6513.6,2534.85C6514.75,2547.52 6518.75,2559.14 6522.72,2570.74C6542.83,2560.12 6563.58,2551.03 6584.78,2543.82C6581.59,2503.6 6562.87,2467.72 6534.61,2442.18ZM6367.68,2363.91C6371.46,2355.28 6374.19,2346.66 6375.7,2338.3C6355.12,2341.99 6333.04,2352.98 6313.02,2369.74C6256.23,2421.39 6188.89,2473.83 6184.98,2561.37C6186.37,2560.93 6187.91,2560.3 6190.08,2559.43C6247.14,2536.61 6283.82,2486.84 6320.63,2439.52C6329.47,2428.15 6349.67,2396.58 6364.9,2368.06C6365.7,2366.56 6366.63,2365.18 6367.68,2363.91ZM5898.97,2404.59C5890.93,2403.29 5882.69,2402.61 5874.28,2402.61C5825.97,2402.61 5782.85,2424.98 5754.71,2459.91C5759.18,2464.47 5763.24,2469.54 5767.6,2473.91C5785.28,2491.59 5803.3,2509.7 5826.4,2520.25C5870.65,2540.44 5922.8,2555.98 5973.57,2559.53C5965.97,2551.17 5958.88,2542.66 5952.69,2533.83C5921.79,2489.68 5903.7,2449.68 5898.97,2404.59ZM5992.42,2299.31C5991.54,2295.28 5990.47,2291.38 5989.2,2287.66C5973.4,2300.56 5959.75,2320.22 5950.46,2343.88C5950.44,2344.94 5950.36,2346.01 5950.21,2347.09C5942.04,2404.27 5955.26,2447.31 5987.13,2495.56C5993.91,2485.7 6003.86,2465.04 6004.95,2461.22C6011.64,2437.8 6009.79,2415.08 6006.14,2391.42C6001.85,2363.56 5995.03,2334.57 5992.47,2302.51C5992.39,2301.43 5992.37,2300.36 5992.42,2299.31ZM5998.78,2491.66L5998.69,2491.67L5999.31,2491.62L5998.78,2491.66ZM5999.87,2491.58L6001.08,2491.55C6000.68,2491.55 6000.28,2491.56 5999.87,2491.58Z" style="fill:rgb(128,164,30);"/>
            </g>
        </g>
    </g>
</svg>
