<?xml version="1.0" encoding="UTF-8" standalone="no"?>
<!DOCTYPE svg PUBLIC "-//W3C//DTD SVG 1.1//EN" "http://www.w3.org/Graphics/SVG/1.1/DTD/svg11.dtd">
<svg width="100%" height="100%" viewBox="0 0 196 196" version="1.1" xmlns="http://www.w3.org/2000/svg" xmlns:xlink="http://www.w3.org/1999/xlink" xml:space="preserve" xmlns:serif="http://www.serif.com/" style="fill-rule:evenodd;clip-rule:evenodd;stroke-linejoin:round;stroke-miterlimit:2;">
    <g transform="matrix(1,0,0,1,-1393.72,-10687.4)">
        <g transform="matrix(2.10071,0,0,2.10071,-3700.49,11263)">
            <g transform="matrix(1,0,0,1,79,-31)">
                <circle cx="2392.5" cy="-196.5" r="46.5" style="fill:rgb(132,0,66);"/>
            </g>
        </g>
        <g transform="matrix(2.10071,0,0,2.10071,-3700.49,11263)">
            <g transform="matrix(1.31891,0,0,1.31891,-697.744,31.0716)">
                <path d="M2388.66,-218C2385.56,-218 2382.46,-214.6 2381.96,-213.9L2381.76,-213.7L2381.66,-213.4C2377.36,-203.5 2391.86,-188.6 2393.66,-186.8C2395.06,-185.4 2406.86,-174.1 2416.36,-174.1C2417.86,-174.1 2419.16,-174.4 2420.36,-174.9L2420.66,-175L2420.86,-175.2C2421.76,-175.9 2426.26,-179.9 2424.66,-183.5C2424.06,-184.9 2419.16,-190.1 2412.96,-191.1L2412.56,-191.2L2412.16,-191.1C2411.86,-191 2409.76,-190.6 2406.76,-188.6C2405.76,-189.1 2403.76,-190.5 2400.46,-193.7C2397.26,-196.9 2395.86,-198.9 2395.36,-199.9C2397.26,-202.9 2397.76,-205 2397.86,-205.2L2397.96,-205.6L2397.86,-206C2396.86,-212.2 2391.56,-217 2390.16,-217.7C2389.76,-217.9 2389.26,-218 2388.66,-218Z" style="fill:white;"/>
            </g>
        </g>
    </g>
</svg>
